<svg width="31" height="31" viewBox="0 0 31 31" fill="none" xmlns="http://www.w3.org/2000/svg">
<path d="M11.2762 6.17409L11.6508 9.45493C11.7412 10.2428 11.47 11.0178 10.9145 11.5733L8.53787 13.9499C10.3979 17.6053 13.3816 20.602 17.05 22.462L19.4395 20.0724C19.7141 19.7976 20.0473 19.5886 20.4142 19.4611C20.7811 19.3336 21.1721 19.2909 21.5579 19.3362L24.8129 19.7108C26.1175 19.8658 27.0991 20.9637 27.0991 22.2812V24.5158C27.0991 25.9753 25.885 27.1895 24.4254 27.0991C13.3945 26.4145 4.58537 17.5924 3.90079 6.57451C3.81037 5.11493 5.02454 3.90076 6.48412 3.90076L8.71871 3.90076C10.0233 3.88784 11.1212 4.86951 11.2762 6.17409Z" fill="#E7FFEF"/>
</svg>
