<svg width="46" height="35" viewBox="0 0 46 35" fill="none" xmlns="http://www.w3.org/2000/svg">
<path d="M45.1136 0V10.9091C45.1136 13.8788 44.5076 16.8636 43.2955 19.8636C42.0833 22.8636 40.553 25.6364 38.7045 28.1818C36.8561 30.7273 34.9924 32.7879 33.1136 34.3636L22.75 29.0909C24.3258 26.4545 25.553 23.697 26.4318 20.8182C27.2803 17.9394 27.6894 14.6364 27.6591 10.9091V0H45.1136ZM22.3864 0V10.9091C22.3864 13.8788 21.7803 16.8636 20.5682 19.8636C19.3561 22.8636 17.8258 25.6364 15.9773 28.1818C14.1288 30.7273 12.2652 32.7879 10.3864 34.3636L0.0227242 29.0909C1.59848 26.4545 2.82576 23.697 3.70454 20.8182C4.55303 17.9394 4.96212 14.6364 4.93182 10.9091V0H22.3864Z" fill="#CECECE"/>
</svg>
