<svg width="46" height="35" viewBox="0 0 46 35" fill="none" xmlns="http://www.w3.org/2000/svg">
<path d="M0.886364 35V24.0909C0.886364 21.1212 1.49242 18.1364 2.70455 15.1364C3.91667 12.1364 5.44697 9.36363 7.29545 6.81818C9.14394 4.27273 11.0076 2.21212 12.8864 0.63636L23.25 5.90909C21.6742 8.54545 20.447 11.303 19.5682 14.1818C18.7197 17.0606 18.3106 20.3636 18.3409 24.0909V35H0.886364ZM23.6136 35V24.0909C23.6136 21.1212 24.2197 18.1364 25.4318 15.1364C26.6439 12.1364 28.1742 9.36363 30.0227 6.81818C31.8712 4.27273 33.7348 2.21212 35.6136 0.63636L45.9773 5.90909C44.4015 8.54545 43.1742 11.303 42.2955 14.1818C41.447 17.0606 41.0379 20.3636 41.0682 24.0909V35H23.6136Z" fill="#CECECE"/>
</svg>
